# xmcd
#
# Track frame offsets:
#	150
#	18672
#	34845
#	52232
#	67300
#	86080
#	105002
#	125995
#	146640
#	165937
#	186987
#	206502
#	225247
#
# Disc length: 3254 seconds
#
# Revision: 5
# Processed by: cddbd v1.5.2PL0 Copyright (c) Steve Scherf et al.
# Submitted via: EZCDAudioConverter 8.2.2.1
#
DISCID=b80cb40d
DTITLE=ZEZÉ DI CAMARGO and LUCIANO - EM ESPANHOL VOL.02 [CD 2-502538) COLUMBIA
DYEAR=2002
DGENRE=SERTANEJO
TTITLE0=DOY LA VIDA POR UN BESO (DOU A VIDA POR UM BEIJO) (BY GILMAR SINISTRO)
TTITLE1=ES TARDE YA (TARDE DEMAIS) (BY GILMAR SINISTRO)
TTITLE2=VEN DIME LO QUE HAGO (O QUE É QUE EU FAÇO) (BY GILMAR SINISTRO)
TTITLE3=TE EXTRAÑO (SAUDADE) (BY GILMAR SINISTRO)
TTITLE4=MI NIÑA VENENO (MENINO VENENO) (BY GILMAR SINISTRO)
TTITLE5=BASTA (PARE!) (BY GILMAR SINISTRO)
TTITLE6=TODO ACABÓ (PASSOU DA CONTA) (BY GILMAR SINISTRO)
TTITLE7=CADA VUELTA ES UN COMIENZO (CADA VOLTA É UM RECOMEÇO) (BY GILMAR SINIS
TTITLE7=TRO)
TTITLE8=LUZ DE MI MUNDO (VOLTA PRA MIM) (BY GILMAR SINISTRO)
TTITLE9=LE MENTIRE AL CORAZON (PRA NÃO PENSAR EM VOCÊ) (BY GILMAR SINISTRO)
TTITLE10=AMOR SELVAJE (AMOR SELVAGEM) (BY GILMAR SINISTRO)
TTITLE11=ANTES DE VOLVER A CASA (ANTES DE VOLTAR PRA CASA) (BY GILMAR SINISTRO
TTITLE11=)
TTITLE12=MI UNIVERSO ERES TU (MEU UNIVERSO É VOCÊ) (BY GILMAR SINISTRO)
EXTD=
EXTT0=
EXTT1=
EXTT2=
EXTT3=
EXTT4=
EXTT5=
EXTT6=
EXTT7=
EXTT8=
EXTT9=
EXTT10=
EXTT11=
EXTT12=
PLAYORDER=
